<svg width="1299" height="311" viewBox="0 0 1299 311" fill="none" xmlns="http://www.w3.org/2000/svg">
<path d="M47.5749 298.988H60.0157C31.971 269.554 14.7254 229.713 14.7254 185.833C14.7254 95.2011 88.197 21.7253 178.833 21.7253C269.469 21.7253 342.931 95.2015 342.931 185.833C342.931 229.713 325.69 269.553 297.643 298.988H310.095C336.302 268.616 352.171 229.092 352.171 185.833C352.171 90.1055 274.566 12.5 178.833 12.5C83.1016 12.5 5.5 90.1054 5.5 185.833C5.5 229.093 21.3649 268.616 47.5749 298.988Z" stroke="white" stroke-width="11" stroke-miterlimit="10" stroke-linecap="round" stroke-linejoin="round"/>
<path d="M106 294L102 305" stroke="white" stroke-width="10" stroke-miterlimit="10" stroke-linecap="round" stroke-linejoin="round"/>
<path d="M120 256L114 272" stroke="white" stroke-width="10" stroke-miterlimit="10" stroke-linecap="round" stroke-linejoin="round"/>
<path d="M251 294L255 305" stroke="white" stroke-width="10" stroke-miterlimit="10" stroke-linecap="round" stroke-linejoin="round"/>
<path d="M238 256L244 272" stroke="white" stroke-width="10" stroke-miterlimit="10" stroke-linecap="round" stroke-linejoin="round"/>
<path d="M267.652 286.171C268.478 287.72 268.431 289.59 267.527 291.096C266.624 292.601 264.996 293.523 263.24 293.523H96.0173C94.2611 293.523 92.6336 292.601 91.73 291.095C90.8263 289.589 90.779 287.72 91.6054 286.17L97.7135 274.715C98.5824 273.086 100.279 272.068 102.125 272.068H257.133C258.98 272.068 260.677 273.086 261.546 274.716L267.652 286.171Z" stroke="white" stroke-width="10" stroke-miterlimit="10" stroke-linecap="round" stroke-linejoin="round"/>
<path d="M263.24 86.8427C263.24 78.5867 256.48 71.8321 248.227 71.8321H110.151C101.896 71.8321 95.1399 78.5867 95.1399 86.8427V241.192C95.1399 249.448 101.896 256.203 110.151 256.203H248.227C256.48 256.203 263.24 249.448 263.24 241.192V86.8427Z" stroke="white" stroke-width="10" stroke-miterlimit="10" stroke-linecap="round" stroke-linejoin="round"/>
<path d="M149 224C149 230.627 143.627 236 137 236C130.373 236 125 230.627 125 224C125 217.373 130.373 212 137 212C143.627 212 149 217.373 149 224Z" stroke="white" stroke-width="10" stroke-miterlimit="10" stroke-linecap="round" stroke-linejoin="round"/>
<path d="M235 224C235 230.627 229.627 236 223 236C216.373 236 211 230.627 211 224C211 217.373 216.373 212 223 212C229.627 212 235 217.373 235 224Z" stroke="white" stroke-width="10" stroke-miterlimit="10" stroke-linecap="round" stroke-linejoin="round"/>
<path d="M136 114C127.716 114 121 120.716 121 129V172C121 180.284 127.716 187 136 187H222C230.284 187 237 180.284 237 172V129C237 120.716 230.284 114 222 114H136Z" stroke="white" stroke-width="10" stroke-miterlimit="10" stroke-linecap="round" stroke-linejoin="round"/>
<path d="M139.795 92C136.311 92 133.44 94.6218 133.046 98L226.954 98C226.56 94.6218 223.689 92 220.205 92L139.795 92Z" stroke="white" stroke-width="6" stroke-miterlimit="10" stroke-linecap="round" stroke-linejoin="round"/>
<path d="M465.797 208H437.789V60.6953H387.398V36.6719H516.188V60.6953H465.797V208ZM570.562 116.359H590.016C603.062 116.359 612.516 113.938 618.375 109.094C624.234 104.25 627.164 97.0625 627.164 87.5312C627.164 77.8437 624 70.8906 617.672 66.6719C611.344 62.4531 601.812 60.3438 589.078 60.3438H570.562V116.359ZM570.562 139.562V208H542.555V36.6719H590.953C613.062 36.6719 629.43 40.8125 640.055 49.0938C650.68 57.375 655.992 69.875 655.992 86.5938C655.992 107.922 644.898 123.117 622.711 132.18L671.109 208H639.234L598.219 139.562H570.562ZM802.359 208L785.25 160.422H719.742L702.984 208H673.453L737.555 35.9688H768.023L832.125 208H802.359ZM777.867 136.281L761.812 89.6406C760.641 86.5156 759 81.5937 756.891 74.875C754.859 68.1563 753.453 63.2344 752.672 60.1094C750.562 69.7188 747.477 80.2266 743.414 91.6328L727.945 136.281H777.867ZM997.477 208H963.141L878.883 71.4766H877.945L878.531 79.0938C879.625 93.625 880.172 106.906 880.172 118.938V208H854.742V36.6719H888.727L972.75 172.492H973.453C973.297 170.695 972.984 164.172 972.516 152.922C972.047 141.594 971.812 132.766 971.812 126.438V36.6719H997.477V208ZM1139.62 208H1042.71V36.6719H1139.62V60.3438H1070.72V106.984H1135.29V130.422H1070.72V184.211H1139.62V208ZM1275.56 161.477C1275.56 176.711 1270.05 188.664 1259.04 197.336C1248.02 206.008 1232.83 210.344 1213.45 210.344C1194.08 210.344 1178.22 207.336 1165.88 201.32V174.836C1173.69 178.508 1181.97 181.398 1190.72 183.508C1199.55 185.617 1207.75 186.672 1215.33 186.672C1226.42 186.672 1234.59 184.562 1239.82 180.344C1245.13 176.125 1247.79 170.461 1247.79 163.352C1247.79 156.945 1245.37 151.516 1240.52 147.062C1235.68 142.609 1225.68 137.336 1210.52 131.242C1194.9 124.914 1183.88 117.688 1177.48 109.562C1171.07 101.438 1167.87 91.6719 1167.87 80.2656C1167.87 65.9688 1172.95 54.7188 1183.1 46.5156C1193.26 38.3125 1206.89 34.2109 1224 34.2109C1240.41 34.2109 1256.73 37.8047 1272.98 44.9922L1264.08 67.8438C1248.84 61.4375 1235.25 58.2344 1223.3 58.2344C1214.23 58.2344 1207.36 60.2266 1202.67 64.2109C1197.98 68.1172 1195.64 73.3125 1195.64 79.7969C1195.64 84.25 1196.58 88.0781 1198.45 91.2812C1200.33 94.4062 1203.41 97.375 1207.71 100.188C1212.01 103 1219.74 106.711 1230.91 111.32C1243.49 116.555 1252.71 121.438 1258.57 125.969C1264.43 130.5 1268.73 135.617 1271.46 141.32C1274.2 147.023 1275.56 153.742 1275.56 161.477Z" fill="white"/>
<path d="M544.756 280.796C544.756 283.774 543.657 286.134 541.46 287.876C539.279 289.618 536.374 290.488 532.744 290.488C528.382 290.488 525.037 290.008 522.71 289.048V286.558C525.282 287.648 528.561 288.193 532.549 288.193C535.479 288.193 537.798 287.526 539.507 286.191C541.232 284.84 542.095 283.075 542.095 280.894C542.095 279.543 541.81 278.428 541.24 277.549C540.671 276.654 539.743 275.84 538.457 275.107C537.171 274.375 535.283 273.586 532.793 272.739C529.147 271.486 526.624 270.135 525.225 268.687C523.841 267.222 523.149 265.277 523.149 262.852C523.149 260.182 524.191 258.009 526.274 256.333C528.374 254.64 531.068 253.794 534.355 253.794C537.708 253.794 540.858 254.429 543.804 255.698L542.9 257.847C539.938 256.61 537.106 255.991 534.404 255.991C531.768 255.991 529.668 256.602 528.105 257.822C526.543 259.043 525.762 260.703 525.762 262.803C525.762 264.121 525.998 265.203 526.47 266.05C526.958 266.896 527.747 267.661 528.838 268.345C529.928 269.012 531.8 269.818 534.453 270.762C537.236 271.722 539.328 272.658 540.728 273.569C542.127 274.465 543.145 275.49 543.779 276.646C544.43 277.785 544.756 279.168 544.756 280.796ZM572.803 290L572.192 285.801H571.997C570.662 287.51 569.287 288.722 567.871 289.438C566.471 290.138 564.811 290.488 562.891 290.488C560.286 290.488 558.26 289.821 556.812 288.486C555.363 287.152 554.639 285.304 554.639 282.944C554.639 280.356 555.713 278.346 557.861 276.914C560.026 275.482 563.151 274.725 567.236 274.644L572.29 274.497V272.739C572.29 270.216 571.777 268.312 570.752 267.026C569.727 265.741 568.075 265.098 565.796 265.098C563.338 265.098 560.791 265.781 558.154 267.148L557.251 265.049C560.164 263.682 563.045 262.998 565.894 262.998C568.807 262.998 570.98 263.755 572.412 265.269C573.861 266.782 574.585 269.142 574.585 272.349V290H572.803ZM563.037 288.291C565.869 288.291 568.099 287.485 569.727 285.874C571.37 284.246 572.192 281.992 572.192 279.111V276.499L567.554 276.694C563.826 276.873 561.165 277.459 559.57 278.452C557.992 279.429 557.202 280.959 557.202 283.042C557.202 284.702 557.707 285.996 558.716 286.924C559.741 287.835 561.182 288.291 563.037 288.291ZM598.066 265.562H591.816V290H589.399V265.562H584.468V264.146L589.399 263.242V261.191C589.399 257.936 589.993 255.552 591.182 254.038C592.386 252.508 594.347 251.743 597.065 251.743C598.53 251.743 599.995 251.963 601.46 252.402L600.898 254.502C599.596 254.095 598.302 253.892 597.017 253.892C595.129 253.892 593.786 254.453 592.988 255.576C592.207 256.683 591.816 258.49 591.816 260.996V263.462H598.066V265.562ZM618.911 290.488C615.054 290.488 612.043 289.3 609.878 286.924C607.729 284.548 606.655 281.219 606.655 276.938C606.655 272.707 607.697 269.321 609.78 266.782C611.864 264.227 614.671 262.949 618.203 262.949C621.328 262.949 623.794 264.04 625.601 266.221C627.407 268.402 628.311 271.364 628.311 275.107V277.061H609.194C609.227 280.706 610.073 283.49 611.733 285.41C613.41 287.331 615.802 288.291 618.911 288.291C620.425 288.291 621.751 288.185 622.891 287.974C624.046 287.762 625.503 287.306 627.261 286.606V288.804C625.763 289.455 624.38 289.894 623.11 290.122C621.841 290.366 620.441 290.488 618.911 290.488ZM618.203 265.098C615.648 265.098 613.597 265.944 612.051 267.637C610.505 269.313 609.601 271.738 609.341 274.912H625.747C625.747 271.836 625.08 269.435 623.745 267.71C622.41 265.968 620.563 265.098 618.203 265.098ZM640.146 288.096C640.146 286.501 640.798 285.703 642.1 285.703C643.434 285.703 644.102 286.501 644.102 288.096C644.102 289.691 643.434 290.488 642.1 290.488C640.798 290.488 640.146 289.691 640.146 288.096Z" fill="white"/>
<path d="M1023.54 289H1021.05V253.307H1040.61V255.602H1023.54V270.738H1039.66V273.058H1023.54V289ZM1066.65 289L1066.04 284.801H1065.85C1064.51 286.51 1063.14 287.722 1061.72 288.438C1060.32 289.138 1058.66 289.488 1056.74 289.488C1054.14 289.488 1052.11 288.821 1050.66 287.486C1049.21 286.152 1048.49 284.304 1048.49 281.944C1048.49 279.356 1049.56 277.346 1051.71 275.914C1053.88 274.482 1057 273.725 1061.09 273.644L1066.14 273.497V271.739C1066.14 269.216 1065.63 267.312 1064.6 266.026C1063.58 264.741 1061.93 264.098 1059.65 264.098C1057.19 264.098 1054.64 264.781 1052.01 266.148L1051.1 264.049C1054.02 262.682 1056.9 261.998 1059.75 261.998C1062.66 261.998 1064.83 262.755 1066.26 264.269C1067.71 265.782 1068.44 268.142 1068.44 271.349V289H1066.65ZM1056.89 287.291C1059.72 287.291 1061.95 286.485 1063.58 284.874C1065.22 283.246 1066.04 280.992 1066.04 278.111V275.499L1061.41 275.694C1057.68 275.873 1055.02 276.459 1053.42 277.452C1051.84 278.429 1051.05 279.959 1051.05 282.042C1051.05 283.702 1051.56 284.996 1052.57 285.924C1053.59 286.835 1055.03 287.291 1056.89 287.291ZM1098.51 282.091C1098.51 284.467 1097.61 286.298 1095.8 287.584C1093.99 288.854 1091.43 289.488 1088.11 289.488C1084.56 289.488 1081.75 288.943 1079.66 287.853V285.24C1082.33 286.575 1085.15 287.242 1088.11 287.242C1090.73 287.242 1092.72 286.811 1094.07 285.948C1095.43 285.069 1096.12 283.906 1096.12 282.457C1096.12 281.122 1095.57 279.999 1094.48 279.088C1093.41 278.176 1091.63 277.281 1089.16 276.402C1086.51 275.442 1084.64 274.62 1083.57 273.937C1082.49 273.237 1081.68 272.455 1081.13 271.593C1080.59 270.714 1080.32 269.648 1080.32 268.395C1080.32 266.409 1081.15 264.838 1082.81 263.683C1084.49 262.527 1086.82 261.949 1089.82 261.949C1092.68 261.949 1095.4 262.486 1097.97 263.561L1097.07 265.758C1094.47 264.684 1092.05 264.146 1089.82 264.146C1087.65 264.146 1085.94 264.505 1084.67 265.221C1083.4 265.937 1082.76 266.93 1082.76 268.199C1082.76 269.583 1083.25 270.689 1084.23 271.52C1085.22 272.35 1087.15 273.277 1090.01 274.303C1092.41 275.165 1094.15 275.947 1095.24 276.646C1096.33 277.33 1097.14 278.111 1097.68 278.99C1098.23 279.869 1098.51 280.903 1098.51 282.091ZM1117.35 287.34C1118.88 287.34 1120.22 287.21 1121.36 286.949V288.902C1120.18 289.293 1118.83 289.488 1117.3 289.488C1114.96 289.488 1113.23 288.862 1112.1 287.608C1111 286.355 1110.44 284.386 1110.44 281.7V264.562H1106.51V263.146L1110.44 262.047L1111.66 256.041H1112.91V262.462H1120.7V264.562H1112.91V281.358C1112.91 283.393 1113.27 284.898 1113.98 285.875C1114.7 286.852 1115.82 287.34 1117.35 287.34ZM1131.61 287.096C1131.61 285.501 1132.26 284.703 1133.56 284.703C1134.89 284.703 1135.56 285.501 1135.56 287.096C1135.56 288.691 1134.89 289.488 1133.56 289.488C1132.26 289.488 1131.61 288.691 1131.61 287.096Z" fill="white"/>
<path d="M725.544 273.448V289H723.054V253.307H731.55C735.977 253.307 739.248 254.129 741.364 255.772C743.48 257.4 744.538 259.858 744.538 263.146C744.538 265.538 743.903 267.556 742.634 269.2C741.381 270.844 739.468 272.024 736.896 272.74L746.589 289H743.61L734.406 273.448H725.544ZM725.544 271.3H732.355C735.367 271.3 737.702 270.632 739.362 269.298C741.022 267.947 741.853 265.961 741.853 263.341C741.853 260.623 741.039 258.645 739.411 257.408C737.784 256.171 735.131 255.553 731.452 255.553H725.544V271.3ZM767.897 289.488C764.04 289.488 761.029 288.3 758.864 285.924C756.716 283.548 755.642 280.219 755.642 275.938C755.642 271.707 756.683 268.321 758.767 265.782C760.85 263.227 763.658 261.949 767.189 261.949C770.314 261.949 772.78 263.04 774.587 265.221C776.394 267.402 777.297 270.364 777.297 274.107V276.061H758.181C758.213 279.706 759.06 282.49 760.72 284.41C762.396 286.331 764.789 287.291 767.897 287.291C769.411 287.291 770.738 287.185 771.877 286.974C773.033 286.762 774.489 286.306 776.247 285.606V287.804C774.75 288.455 773.366 288.894 772.097 289.122C770.827 289.366 769.427 289.488 767.897 289.488ZM767.189 264.098C764.634 264.098 762.583 264.944 761.037 266.637C759.491 268.313 758.588 270.738 758.327 273.912H774.733C774.733 270.836 774.066 268.435 772.731 266.71C771.397 264.968 769.549 264.098 767.189 264.098ZM792.038 289H789.621V251.012H792.038V289ZM808.366 289H805.949V262.462H808.366V289ZM805.607 255.089C805.607 253.526 806.12 252.745 807.146 252.745C807.65 252.745 808.041 252.949 808.317 253.355C808.61 253.762 808.757 254.34 808.757 255.089C808.757 255.821 808.61 256.399 808.317 256.822C808.041 257.245 807.65 257.457 807.146 257.457C806.12 257.457 805.607 256.668 805.607 255.089ZM838.391 289L837.78 284.801H837.585C836.25 286.51 834.875 287.722 833.459 288.438C832.059 289.138 830.399 289.488 828.479 289.488C825.874 289.488 823.848 288.821 822.399 287.486C820.951 286.152 820.227 284.304 820.227 281.944C820.227 279.356 821.301 277.346 823.449 275.914C825.614 274.482 828.739 273.725 832.824 273.644L837.878 273.497V271.739C837.878 269.216 837.365 267.312 836.34 266.026C835.314 264.741 833.662 264.098 831.384 264.098C828.926 264.098 826.379 264.781 823.742 266.148L822.839 264.049C825.752 262.682 828.633 261.998 831.481 261.998C834.395 261.998 836.568 262.755 838 264.269C839.449 265.782 840.173 268.142 840.173 271.349V289H838.391ZM828.625 287.291C831.457 287.291 833.687 286.485 835.314 284.874C836.958 283.246 837.78 280.992 837.78 278.111V275.499L833.142 275.694C829.414 275.873 826.753 276.459 825.158 277.452C823.579 278.429 822.79 279.959 822.79 282.042C822.79 283.702 823.295 284.996 824.304 285.924C825.329 286.835 826.77 287.291 828.625 287.291ZM864.997 261.949C868.708 261.949 871.499 263.121 873.371 265.465C875.259 267.792 876.203 271.202 876.203 275.694C876.203 280.105 875.21 283.507 873.225 285.899C871.255 288.292 868.48 289.488 864.899 289.488C863.011 289.488 861.311 289.098 859.797 288.316C858.283 287.535 857.087 286.428 856.208 284.996H855.988L855.305 289H853.791V251.012H856.208V260.558C856.208 261.99 856.175 263.308 856.11 264.513L856.037 266.588H856.208C857.217 264.993 858.43 263.821 859.846 263.072C861.278 262.324 862.995 261.949 864.997 261.949ZM864.948 264.146C861.823 264.146 859.585 265.042 858.234 266.832C856.883 268.622 856.208 271.576 856.208 275.694V276.109C856.208 280.113 856.908 282.986 858.308 284.728C859.724 286.469 861.921 287.34 864.899 287.34C867.797 287.34 869.978 286.331 871.442 284.312C872.907 282.278 873.64 279.389 873.64 275.646C873.64 267.979 870.743 264.146 864.948 264.146ZM890.993 289H888.576V251.012H890.993V289ZM915.622 289.488C911.765 289.488 908.754 288.3 906.589 285.924C904.44 283.548 903.366 280.219 903.366 275.938C903.366 271.707 904.408 268.321 906.491 265.782C908.575 263.227 911.382 261.949 914.914 261.949C918.039 261.949 920.505 263.04 922.312 265.221C924.118 267.402 925.021 270.364 925.021 274.107V276.061H905.905C905.938 279.706 906.784 282.49 908.444 284.41C910.121 286.331 912.513 287.291 915.622 287.291C917.136 287.291 918.462 287.185 919.602 286.974C920.757 286.762 922.214 286.306 923.972 285.606V287.804C922.474 288.455 921.091 288.894 919.821 289.122C918.552 289.366 917.152 289.488 915.622 289.488ZM914.914 264.098C912.359 264.098 910.308 264.944 908.762 266.637C907.215 268.313 906.312 270.738 906.052 273.912H922.458C922.458 270.836 921.791 268.435 920.456 266.71C919.121 264.968 917.274 264.098 914.914 264.098ZM936.857 287.096C936.857 285.501 937.508 284.703 938.811 284.703C940.145 284.703 940.812 285.501 940.812 287.096C940.812 288.691 940.145 289.488 938.811 289.488C937.508 289.488 936.857 288.691 936.857 287.096Z" fill="white"/>
</svg>
